<svg xmlns="http://www.w3.org/2000/svg" width="940" height="620" viewBox="0 0 940 620"><rect width="100%" height="100%" fill="#F4F1DE"/><line x1="110.0" y1="60" x2="110.0" y2="530" stroke="#d8d0c4" stroke-width="1"/><line x1="110" y1="60.0" x2="870" y2="60.0" stroke="#d8d0c4" stroke-width="1"/><line x1="300.0" y1="60" x2="300.0" y2="530" stroke="#d8d0c4" stroke-width="1"/><line x1="110" y1="177.5" x2="870" y2="177.5" stroke="#d8d0c4" stroke-width="1"/><line x1="490.0" y1="60" x2="490.0" y2="530" stroke="#d8d0c4" stroke-width="1"/><line x1="110" y1="295.0" x2="870" y2="295.0" stroke="#d8d0c4" stroke-width="1"/><line x1="680.0" y1="60" x2="680.0" y2="530" stroke="#d8d0c4" stroke-width="1"/><line x1="110" y1="412.5" x2="870" y2="412.5" stroke="#d8d0c4" stroke-width="1"/><line x1="870.0" y1="60" x2="870.0" y2="530" stroke="#d8d0c4" stroke-width="1"/><line x1="110" y1="530.0" x2="870" y2="530.0" stroke="#d8d0c4" stroke-width="1"/><line x1="110" y1="530" x2="870" y2="530" stroke="#1f2a2e" stroke-width="2"/><line x1="110" y1="60" x2="110" y2="530" stroke="#1f2a2e" stroke-width="2"/><text x="110.0" y="558" font-size="14" text-anchor="middle" fill="#1f2a2e">1</text><text x="92" y="535.0" font-size="14" text-anchor="end" fill="#1f2a2e">1</text><text x="300.0" y="558" font-size="14" text-anchor="middle" fill="#1f2a2e">2</text><text x="92" y="417.5" font-size="14" text-anchor="end" fill="#1f2a2e">2</text><text x="490.0" y="558" font-size="14" text-anchor="middle" fill="#1f2a2e">3</text><text x="92" y="300.0" font-size="14" text-anchor="end" fill="#1f2a2e">3</text><text x="680.0" y="558" font-size="14" text-anchor="middle" fill="#1f2a2e">4</text><text x="92" y="182.5" font-size="14" text-anchor="end" fill="#1f2a2e">4</text><text x="870.0" y="558" font-size="14" text-anchor="middle" fill="#1f2a2e">5</text><text x="92" y="65.0" font-size="14" text-anchor="end" fill="#1f2a2e">5</text><text x="470.0" y="592" font-size="18" font-family="Ubuntu" text-anchor="middle" fill="#1f2a2e">Ease of MVP</text><text x="30" y="310.0" transform="rotate(-90 30 310.0)" font-size="18" font-family="Ubuntu" text-anchor="middle" fill="#1f2a2e">Urgency / willingness to pay</text><text x="470.0" y="34" font-size="24" font-family="Ubuntu" font-weight="700" text-anchor="middle" fill="#0F3D3E">Market Wedge Matrix</text><circle cx="680.0" cy="118.75" r="16" fill="#0F3D3E" opacity="0.95"/><text x="698.0" y="123.75" font-size="15" font-family="Ubuntu" fill="#1f2a2e">Funded mobility</text><circle cx="718.0" cy="177.5" r="12" fill="#81B29A" opacity="0.95"/><text x="736.0" y="182.5" font-size="15" font-family="Ubuntu" fill="#1f2a2e">CFPs + travel grants</text><circle cx="490.0" cy="154.0" r="12" fill="#3D405B" opacity="0.95"/><text x="508.0" y="159.0" font-size="15" font-family="Ubuntu" fill="#1f2a2e">Research fellowships</text><circle cx="604.0" cy="201.00000000000003" r="12" fill="#F2CC8F" opacity="0.95"/><text x="622.0" y="206.00000000000003" font-size="15" font-family="Ubuntu" fill="#1f2a2e">Scholarships</text><circle cx="451.99999999999994" cy="236.25" r="12" fill="#E07A5F" opacity="0.95"/><text x="469.99999999999994" y="241.25" font-size="15" font-family="Ubuntu" fill="#1f2a2e">Creative open calls</text><circle cx="661.0" cy="271.5" r="12" fill="#9E6A03" opacity="0.95"/><text x="679.0" y="276.5" font-size="15" font-family="Ubuntu" fill="#1f2a2e">Founder programs</text><circle cx="756.0000000000001" cy="295.0" r="12" fill="#BC6C25" opacity="0.95"/><text x="774.0000000000001" y="300.0" font-size="15" font-family="Ubuntu" fill="#1f2a2e">Broad job automation</text></svg>